# xmcd CD database file
#
# Track frame offsets:
#	150
#	11652
#	27040
#	39235
#	47887
#	60550
#	71985
#	84170
#	98947
#	109962
#	128742
#	146980
#	157035
#
# Disc length: 2571 seconds
#
# Revision: 0
# Processed by: cddbd v1.4PL0 Copyright (c) Steve Scherf et al.
# Submitted via: CD2WAV32(EN) R3.19
#
DISCID=b10a090d
DTITLE=Chris Sharp - Good "Fa-air" side
DYEAR=1900
DGENRE=
TTITLE0=Down the Road to Love
TTITLE1=Ashville Junction
TTITLE2=Love Grown Cold
TTITLE3=Follow You Up to Our Cloud
TTITLE4=Rainbow of My Dreams
TTITLE5=Here I Am in Love Again
TTITLE6=Your Troubled Ways Keep Us Apart
TTITLE7=Cotton Baggin'
TTITLE8=Goin' Away Baby
TTITLE9=The Only Voice You Hear's Your Own
TTITLE10=Blue Mountain Waltz
TTITLE11=I'll Be No Stranger There
TTITLE12=Foggy Mountain Landscape
EXTD=
EXTT0=
EXTT1=
EXTT2=
EXTT3=
EXTT4=
EXTT5=
EXTT6=
EXTT7=
EXTT8=
EXTT9=
EXTT10=
EXTT11=
EXTT12=
PLAYORDER=
